<?xml version="1.0" encoding="UTF-8"?>
<!DOCTYPE svg PUBLIC "-//W3C//DTD SVG 1.1//EN" "http://www.w3.org/Graphics/SVG/1.1/DTD/svg11.dtd">
<svg xmlns="http://www.w3.org/2000/svg" version="1.1" width="467px" height="398px" style="shape-rendering:geometricPrecision; text-rendering:geometricPrecision; image-rendering:optimizeQuality; fill-rule:evenodd; clip-rule:evenodd" xmlns:xlink="http://www.w3.org/1999/xlink">
<g><path style="opacity:1" fill="#94aaf8" d="M -0.5,-0.5 C 24.1667,-0.5 48.8333,-0.5 73.5,-0.5C 66.3543,3.77038 59.021,7.93705 51.5,12C 43.315,18.0218 35.9817,24.8551 29.5,32.5C 29.5,33.1667 29.1667,33.5 28.5,33.5C 18.2077,34.1609 8.54101,36.8275 -0.5,41.5C -0.5,39.1667 -0.5,36.8333 -0.5,34.5C 3.65262,32.6022 6.65262,29.6022 8.5,25.5C 7.16769,23.3367 5.33435,21.67 3,20.5C 2.33333,19.8333 2.33333,19.1667 3,18.5C 6.41064,17.7069 9.91064,17.2069 13.5,17C 17.5947,13.9954 17.2614,11.3288 12.5,9C 8.26954,7.71011 3.93621,7.21011 -0.5,7.5C -0.5,4.83333 -0.5,2.16667 -0.5,-0.5 Z"/></g>
<g><path style="opacity:1" fill="#5670c5" d="M 73.5,-0.5 C 86.5,-0.5 99.5,-0.5 112.5,-0.5C 113.545,2.54539 115.545,4.54539 118.5,5.5C 117.432,6.43448 116.099,6.76781 114.5,6.5C 109.528,5.5784 104.528,5.41173 99.5,6C 81.3047,10.9363 64.9713,19.2696 50.5,31C 55.8544,31.3905 61.1877,31.8905 66.5,32.5C 62.0361,37.732 56.3695,40.232 49.5,40C 47.2726,39.059 45.2726,37.8923 43.5,36.5C 44.4787,34.8546 45.812,33.5213 47.5,32.5C 41.4773,31.2528 35.4773,31.2528 29.5,32.5C 35.9817,24.8551 43.315,18.0218 51.5,12C 59.021,7.93705 66.3543,3.77038 73.5,-0.5 Z"/></g>
<g><path style="opacity:1" fill="#4357a9" d="M 112.5,-0.5 C 120.5,-0.5 128.5,-0.5 136.5,-0.5C 136.267,1.06181 135.6,2.39514 134.5,3.5C 133.711,3.78281 133.044,4.28281 132.5,5C 127.845,5.49915 123.179,5.66582 118.5,5.5C 115.545,4.54539 113.545,2.54539 112.5,-0.5 Z"/></g>
<g><path style="opacity:1" fill="#95abf8" d="M 141.5,-0.5 C 149.5,-0.5 157.5,-0.5 165.5,-0.5C 167.017,1.93577 166.684,4.10244 164.5,6C 170.319,9.09832 170.986,13.0983 166.5,18C 165.167,18.6667 163.833,18.6667 162.5,18C 159.876,15.2131 157.876,12.0464 156.5,8.5C 154.955,7.54811 153.288,7.21478 151.5,7.5C 151.383,9.4835 152.05,11.1502 153.5,12.5C 157.614,16.2941 161.78,19.9608 166,23.5C 167.174,27.0458 167.84,30.7125 168,34.5C 172.014,39.4238 176.514,39.7572 181.5,35.5C 186.35,41.5034 191.683,42.0034 197.5,37C 199.167,36.3333 200.833,36.3333 202.5,37C 202.248,43.3418 204.914,47.8418 210.5,50.5C 211.504,51.6828 212.338,53.0161 213,54.5C 213.109,59.6141 213.776,64.6141 215,69.5C 219.617,72.138 223.783,71.4714 227.5,67.5C 228.962,66.5423 230.295,65.3756 231.5,64C 237.224,64.3188 241.891,62.3188 245.5,58C 247.838,57.1634 250.172,56.3301 252.5,55.5C 256.134,60.6326 260.634,64.966 266,68.5C 269.4,75.4646 273.9,81.6313 279.5,87C 286.465,90.1401 293.465,90.1401 300.5,87C 305.167,84.6667 309.833,82.3333 314.5,80C 313.62,78.6439 313.286,77.1439 313.5,75.5C 319.842,75.3338 326.175,75.5005 332.5,76C 333.86,77.9376 333.527,79.6043 331.5,81C 327.284,82.2036 322.951,82.8702 318.5,83C 329.035,85.8243 338.035,83.1576 345.5,75C 365.055,72.5475 377.888,80.7141 384,99.5C 384.893,102.433 385.393,105.433 385.5,108.5C 384.261,113.397 383.428,118.397 383,123.5C 380.302,127.025 377.469,130.358 374.5,133.5C 375.703,129.89 376.703,126.223 377.5,122.5C 378.404,121.791 378.737,120.791 378.5,119.5C 381.218,117.618 381.885,115.285 380.5,112.5C 381.341,108.425 380.008,105.425 376.5,103.5C 373.322,100.742 369.655,98.7417 365.5,97.5C 363.438,96.2237 361.104,95.3903 358.5,95C 346.626,93.7362 334.959,94.7362 323.5,98C 310.485,104.116 297.152,109.45 283.5,114C 271.501,117.25 259.501,117.25 247.5,114C 229.133,108.482 212.133,100.315 196.5,89.5C 207.636,86.9394 218.636,83.7728 229.5,80C 235.5,79.3333 241.5,79.3333 247.5,80C 261.953,86.0548 275.286,93.8882 287.5,103.5C 285.397,99.8442 282.397,96.3442 278.5,93C 268.654,84.0755 257.321,77.7421 244.5,74C 238.903,72.5439 233.237,72.2106 227.5,73C 220.394,76.5528 213.061,79.5528 205.5,82C 199.669,82.7097 194.002,83.543 188.5,84.5C 186.246,83.5849 184.246,82.2516 182.5,80.5C 178.217,72.2722 172.717,64.9389 166,58.5C 165.617,59.056 165.117,59.3893 164.5,59.5C 161.776,44.6867 156.276,31.0201 148,18.5C 146.951,16.3825 145.451,14.7158 143.5,13.5C 143.5,13.1667 143.5,12.8333 143.5,12.5C 144.898,11.2233 145.564,9.55663 145.5,7.5C 145.533,4.89835 144.533,2.89835 142.5,1.5C 142.167,0.833333 141.833,0.166667 141.5,-0.5 Z"/></g>
<g><path style="opacity:0.988" fill="#6781dc" d="M 165.5,-0.5 C 171.833,-0.5 178.167,-0.5 184.5,-0.5C 188.134,4.12908 192.467,8.12908 197.5,11.5C 199.795,12.4318 202.129,13.2652 204.5,14C 215.897,14.8001 227.23,14.3001 238.5,12.5C 245.178,12.5863 251.511,14.0863 257.5,17C 271.554,27.9856 282.054,41.8189 289,58.5C 298.246,65.9868 308.913,69.6534 321,69.5C 329.583,68.8919 338.083,67.7253 346.5,66C 356.365,64.0018 365.365,65.8352 373.5,71.5C 383.749,79.659 389.583,90.3257 391,103.5C 393.402,115.728 392.569,127.728 388.5,139.5C 385.237,138.862 382.071,138.862 379,139.5C 378.833,139.833 378.667,140.167 378.5,140.5C 380.078,141.298 381.744,141.798 383.5,142C 382.692,142.308 382.025,142.808 381.5,143.5C 382.95,144.85 383.617,146.516 383.5,148.5C 380.334,150.834 377.667,153.667 375.5,157C 373.075,158.213 370.741,159.379 368.5,160.5C 366.29,160.106 364.957,158.773 364.5,156.5C 368.615,149.149 371.948,141.482 374.5,133.5C 377.469,130.358 380.302,127.025 383,123.5C 383.428,118.397 384.261,113.397 385.5,108.5C 385.393,105.433 384.893,102.433 384,99.5C 377.888,80.7141 365.055,72.5475 345.5,75C 338.035,83.1576 329.035,85.8243 318.5,83C 322.951,82.8702 327.284,82.2036 331.5,81C 333.527,79.6043 333.86,77.9376 332.5,76C 326.175,75.5005 319.842,75.3338 313.5,75.5C 313.286,77.1439 313.62,78.6439 314.5,80C 309.833,82.3333 305.167,84.6667 300.5,87C 293.465,90.1401 286.465,90.1401 279.5,87C 273.9,81.6313 269.4,75.4646 266,68.5C 260.634,64.966 256.134,60.6326 252.5,55.5C 250.172,56.3301 247.838,57.1634 245.5,58C 241.891,62.3188 237.224,64.3188 231.5,64C 230.295,65.3756 228.962,66.5423 227.5,67.5C 226.957,67.44 226.624,67.1067 226.5,66.5C 229.203,59.0645 233.369,52.7311 239,47.5C 239.52,45.7111 239.187,44.0444 238,42.5C 233.804,41.8955 229.637,41.0622 225.5,40C 221.585,35.5784 217.252,31.7451 212.5,28.5C 203.575,35.0059 203.242,42.0059 211.5,49.5C 211.376,50.1067 211.043,50.44 210.5,50.5C 204.914,47.8418 202.248,43.3418 202.5,37C 200.833,36.3333 199.167,36.3333 197.5,37C 191.683,42.0034 186.35,41.5034 181.5,35.5C 176.514,39.7572 172.014,39.4238 168,34.5C 167.84,30.7125 167.174,27.0458 166,23.5C 161.78,19.9608 157.614,16.2941 153.5,12.5C 152.05,11.1502 151.383,9.4835 151.5,7.5C 153.288,7.21478 154.955,7.54811 156.5,8.5C 157.876,12.0464 159.876,15.2131 162.5,18C 163.833,18.6667 165.167,18.6667 166.5,18C 170.986,13.0983 170.319,9.09832 164.5,6C 166.684,4.10244 167.017,1.93577 165.5,-0.5 Z"/></g>
<g><path style="opacity:1" fill="#96abf7" d="M 114.5,6.5 C 111.275,8.21311 108.441,10.5464 106,13.5C 104.826,17.0458 104.16,20.7125 104,24.5C 103.25,23.8742 102.416,23.3742 101.5,23C 96.5,22.3333 91.5,22.3333 86.5,23C 79.6595,25.9214 72.9928,29.0881 66.5,32.5C 61.1877,31.8905 55.8544,31.3905 50.5,31C 64.9713,19.2696 81.3047,10.9363 99.5,6C 104.528,5.41173 109.528,5.5784 114.5,6.5 Z"/></g>
<g><path style="opacity:1" fill="#d6bc6b" d="M 142.5,1.5 C 144.533,2.89835 145.533,4.89835 145.5,7.5C 145.564,9.55663 144.898,11.2233 143.5,12.5C 143.677,8.76574 143.344,5.09907 142.5,1.5 Z"/></g>
<g><path style="opacity:1" fill="#3752af" d="M -0.5,7.5 C 3.93621,7.21011 8.26954,7.71011 12.5,9C 17.2614,11.3288 17.5947,13.9954 13.5,17C 9.91064,17.2069 6.41064,17.7069 3,18.5C 2.33333,19.1667 2.33333,19.8333 3,20.5C 5.33435,21.67 7.16769,23.3367 8.5,25.5C 6.65262,29.6022 3.65262,32.6022 -0.5,34.5C -0.5,25.5 -0.5,16.5 -0.5,7.5 Z"/></g>
<g><path style="opacity:1" fill="#e1c868" d="M 134.5,3.5 C 134.169,11.9943 129.836,16.8276 121.5,18C 117.971,20.3308 115.971,23.4975 115.5,27.5C 114.609,26.8902 113.609,26.5569 112.5,26.5C 110.636,25.2072 108.636,25.2072 106.5,26.5C 107.86,29.2198 109.193,31.8864 110.5,34.5C 106.457,33.0993 102.457,33.266 98.5,35C 90.2625,41.5602 81.2625,46.8936 71.5,51C 62.5786,52.9649 54.5786,51.1316 47.5,45.5C 46.8933,45.6236 46.56,45.9569 46.5,46.5C 45.5,45.8333 44.5,45.1667 43.5,44.5C 41.9565,42.0722 40.9565,39.4056 40.5,36.5C 41.5,36.5 42.5,36.5 43.5,36.5C 45.2726,37.8923 47.2726,39.059 49.5,40C 56.3695,40.232 62.0361,37.732 66.5,32.5C 72.9928,29.0881 79.6595,25.9214 86.5,23C 91.5,22.3333 96.5,22.3333 101.5,23C 102.416,23.3742 103.25,23.8742 104,24.5C 104.16,20.7125 104.826,17.0458 106,13.5C 108.441,10.5464 111.275,8.21311 114.5,6.5C 116.099,6.76781 117.432,6.43448 118.5,5.5C 123.179,5.66582 127.845,5.49915 132.5,5C 133.044,4.28281 133.711,3.78281 134.5,3.5 Z"/></g>
<g><path style="opacity:1" fill="#5871c4" d="M 143.5,13.5 C 145.451,14.7158 146.951,16.3825 148,18.5C 156.276,31.0201 161.776,44.6867 164.5,59.5C 164.785,61.288 164.452,62.9547 163.5,64.5C 159.514,61.5139 155.847,58.1806 152.5,54.5C 148.787,44.069 143.287,34.7357 136,26.5C 134,29.6657 131.5,32.3324 128.5,34.5C 128.34,32.8008 128.506,31.1341 129,29.5C 134.41,24.595 139.243,19.2617 143.5,13.5 Z"/></g>
<g><path style="opacity:1" fill="#e8c02e" d="M 136.5,-0.5 C 138.167,-0.5 139.833,-0.5 141.5,-0.5C 141.833,0.166667 142.167,0.833333 142.5,1.5C 143.344,5.09907 143.677,8.76574 143.5,12.5C 143.5,12.8333 143.5,13.1667 143.5,13.5C 139.243,19.2617 134.41,24.595 129,29.5C 128.506,31.1341 128.34,32.8008 128.5,34.5C 128.5,34.8333 128.5,35.1667 128.5,35.5C 123.999,33.0841 119.666,30.4175 115.5,27.5C 115.971,23.4975 117.971,20.3308 121.5,18C 129.836,16.8276 134.169,11.9943 134.5,3.5C 135.6,2.39514 136.267,1.06181 136.5,-0.5 Z"/></g>
<g><path style="opacity:1" fill="#829aed" d="M 171.5,16.5 C 177.127,16.2346 181.627,18.2346 185,22.5C 185.062,30.7677 180.895,34.6011 172.5,34C 168.972,28.3136 168.639,22.4803 171.5,16.5 Z"/></g>
<g><path style="opacity:1" fill="#8199ed" d="M 225.5,21.5 C 232.801,20.9889 239.135,23.1556 244.5,28C 238.908,33.2598 232.241,35.2598 224.5,34C 218.909,29.237 219.242,25.0703 225.5,21.5 Z"/></g>
<g><path style="opacity:1" fill="#cbc4ab" d="M 112.5,26.5 C 113.609,26.5569 114.609,26.8902 115.5,27.5C 119.666,30.4175 123.999,33.0841 128.5,35.5C 129.167,35.5 129.5,35.8333 129.5,36.5C 129.238,37.9778 129.571,39.3112 130.5,40.5C 144.386,52.2721 158.052,64.2721 171.5,76.5C 176.039,83.8853 181.205,90.8853 187,97.5C 196.141,105.972 205.307,114.472 214.5,123C 218.5,125.667 222.5,128.333 226.5,131C 233.39,133.944 240.39,136.611 247.5,139C 253.813,140.337 259.48,139.004 264.5,135C 271.167,134.667 277.833,134.333 284.5,134C 301.833,122.667 319.167,111.333 336.5,100C 332.204,100.701 327.871,101.535 323.5,102.5C 335.691,96.9113 348.357,95.2447 361.5,97.5C 355.725,96.7745 350.392,97.9412 345.5,101C 331.904,111.926 318.904,123.592 306.5,136C 296.145,144.679 284.478,151.012 271.5,155C 264.067,154.617 257.067,155.95 250.5,159C 245.684,160.027 241.35,159.027 237.5,156C 234.294,155.704 231.128,155.204 228,154.5C 224.501,152.336 221.001,150.169 217.5,148C 212.61,147.94 207.943,146.94 203.5,145C 191.065,136.985 181.232,126.485 174,113.5C 170.09,111.593 166.756,108.927 164,105.5C 162.333,99.5 160.667,93.5 159,87.5C 154.946,82.943 150.446,78.943 145.5,75.5C 134.016,58.7038 121.682,42.5371 108.5,27C 109.793,26.51 111.127,26.3433 112.5,26.5 Z"/></g>
<g><path style="opacity:1" fill="#94a9f6" d="M 152.5,54.5 C 144.833,48.5 137.167,42.5 129.5,36.5C 129.5,35.8333 129.167,35.5 128.5,35.5C 128.5,35.1667 128.5,34.8333 128.5,34.5C 131.5,32.3324 134,29.6657 136,26.5C 143.287,34.7357 148.787,44.069 152.5,54.5 Z"/></g>
<g><path style="opacity:1" fill="#8199ec" d="M 227.5,67.5 C 223.783,71.4714 219.617,72.138 215,69.5C 213.776,64.6141 213.109,59.6141 213,54.5C 212.338,53.0161 211.504,51.6828 210.5,50.5C 211.043,50.44 211.376,50.1067 211.5,49.5C 203.242,42.0059 203.575,35.0059 212.5,28.5C 217.252,31.7451 221.585,35.5784 225.5,40C 229.637,41.0622 233.804,41.8955 238,42.5C 239.187,44.0444 239.52,45.7111 239,47.5C 233.369,52.7311 229.203,59.0645 226.5,66.5C 226.624,67.1067 226.957,67.44 227.5,67.5 Z"/></g>
<g><path style="opacity:1" fill="#3953ac" d="M 43.5,36.5 C 42.5,36.5 41.5,36.5 40.5,36.5C 40.9565,39.4056 41.9565,42.0722 43.5,44.5C 40.8127,44.3359 38.146,44.5026 35.5,45C 34.944,45.3826 34.6107,45.8826 34.5,46.5C 29.8534,46.7863 25.3534,47.7863 21,49.5C 20.5,49.1667 20,48.8333 19.5,48.5C 21.7435,43.0074 24.7435,38.0074 28.5,33.5C 29.1667,33.5 29.5,33.1667 29.5,32.5C 35.4773,31.2528 41.4773,31.2528 47.5,32.5C 45.812,33.5213 44.4787,34.8546 43.5,36.5 Z"/></g>
<g><path style="opacity:1" fill="#e2dbc1" d="M 112.5,26.5 C 111.127,26.3433 109.793,26.51 108.5,27C 121.682,42.5371 134.016,58.7038 145.5,75.5C 150.446,78.943 154.946,82.943 159,87.5C 160.667,93.5 162.333,99.5 164,105.5C 166.756,108.927 170.09,111.593 174,113.5C 181.232,126.485 191.065,136.985 203.5,145C 207.943,146.94 212.61,147.94 217.5,148C 221.001,150.169 224.501,152.336 228,154.5C 231.128,155.204 234.294,155.704 237.5,156C 241.35,159.027 245.684,160.027 250.5,159C 257.067,155.95 264.067,154.617 271.5,155C 284.478,151.012 296.145,144.679 306.5,136C 318.904,123.592 331.904,111.926 345.5,101C 350.392,97.9412 355.725,96.7745 361.5,97.5C 362.833,97.5 364.167,97.5 365.5,97.5C 369.655,98.7417 373.322,100.742 376.5,103.5C 366.103,104.106 356.103,106.939 346.5,112C 339,118.167 332.167,125 326,132.5C 315.882,146.286 305.382,159.786 294.5,173C 286.35,179.572 277.017,183.072 266.5,183.5C 265.746,180.909 264.079,179.076 261.5,178C 231.38,171.602 204.047,159.269 179.5,141C 169.505,132.347 161.005,122.514 154,111.5C 144.931,92.3593 135.098,73.6926 124.5,55.5C 124.043,54.7025 123.376,54.3691 122.5,54.5C 121.087,51.3388 119.42,48.3388 117.5,45.5C 116.011,42.522 114.511,39.522 113,36.5C 112.292,35.6195 111.458,34.9528 110.5,34.5C 109.193,31.8864 107.86,29.2198 106.5,26.5C 108.636,25.2072 110.636,25.2072 112.5,26.5 Z"/></g>
<g><path style="opacity:1" fill="#8199ed" d="M 243.5,33.5 C 247.167,33.1636 250.5,33.997 253.5,36C 255.515,37.5553 255.848,39.3886 254.5,41.5C 250.516,42.7699 246.516,42.7699 242.5,41.5C 241.025,38.5572 241.358,35.8906 243.5,33.5 Z"/></g>
<g><path style="opacity:1" fill="#e9c237" d="M 110.5,34.5 C 111.458,34.9528 112.292,35.6195 113,36.5C 114.511,39.522 116.011,42.522 117.5,45.5C 112.052,41.9149 106.052,40.7482 99.5,42C 93.0096,47.1572 86.0096,51.4905 78.5,55C 66.1185,58.0733 55.4518,55.24 46.5,46.5C 46.56,45.9569 46.8933,45.6236 47.5,45.5C 54.5786,51.1316 62.5786,52.9649 71.5,51C 81.2625,46.8936 90.2625,41.5602 98.5,35C 102.457,33.266 106.457,33.0993 110.5,34.5 Z"/></g>
<g><path style="opacity:1" fill="#95abf9" d="M 117.5,45.5 C 119.42,48.3388 121.087,51.3388 122.5,54.5C 129.353,79.2265 138.853,102.893 151,125.5C 156.6,134.592 163.1,142.926 170.5,150.5C 173.792,155.46 177.792,159.793 182.5,163.5C 184.294,165.797 186.294,167.963 188.5,170C 197.414,176.277 206.08,182.777 214.5,189.5C 203.552,193.879 192.219,195.212 180.5,193.5C 174.526,191.082 172.692,192.749 175,198.5C 183.094,207.966 193.261,213.966 205.5,216.5C 208.159,215.515 210.826,214.515 213.5,213.5C 216.11,213.647 218.444,214.481 220.5,216C 224.485,217.334 227.152,216.001 228.5,212C 236.587,210.475 243.921,207.308 250.5,202.5C 252.772,203.319 255.106,203.985 257.5,204.5C 253.594,212.406 247.928,218.739 240.5,223.5C 232.534,226.64 232.534,229.307 240.5,231.5C 238.61,231.297 237.11,231.963 236,233.5C 235.047,236.432 234.547,239.432 234.5,242.5C 221.9,244.317 209.233,244.817 196.5,244C 194.757,242.365 192.923,242.198 191,243.5C 188.773,242.637 186.607,241.637 184.5,240.5C 184.167,240.833 183.833,241.167 183.5,241.5C 187.057,244.076 191.057,245.576 195.5,246C 204.833,246.667 214.167,246.667 223.5,246C 227.344,245.764 231.011,244.93 234.5,243.5C 229.384,248.554 223.05,251.054 215.5,251C 202.83,251.127 190.163,251.127 177.5,251C 162.993,253.512 157.16,262.012 160,276.5C 160.701,279.327 161.701,281.994 163,284.5C 164.936,292.124 162.77,298.291 156.5,303C 160.323,306.492 163.823,310.325 167,314.5C 167.667,317.833 167.667,321.167 167,324.5C 162.885,333.745 158.052,342.412 152.5,350.5C 147.001,346.827 143.168,341.827 141,335.5C 140.333,333.5 140.333,331.5 141,329.5C 145.054,334.057 149.554,338.057 154.5,341.5C 157.083,338.003 159.416,334.336 161.5,330.5C 161.154,329.304 160.654,329.304 160,330.5C 158.248,333.672 156.248,336.672 154,339.5C 151.954,337.624 150.121,335.624 148.5,333.5C 149.046,331.865 149.38,330.199 149.5,328.5C 150.323,325.023 150.823,321.356 151,317.5C 151.654,318.696 152.154,318.696 152.5,317.5C 150.524,314.652 150.191,311.652 151.5,308.5C 153.664,307.586 155.664,306.419 157.5,305C 155.063,305.203 152.729,306.037 150.5,307.5C 147.661,302.787 147.994,298.453 151.5,294.5C 151.333,294.167 151.167,293.833 151,293.5C 150,294.5 149,295.5 148,296.5C 146.62,292.508 146.12,288.508 146.5,284.5C 145.719,285.729 145.219,287.062 145,288.5C 144.292,287.619 143.458,286.953 142.5,286.5C 145.162,268.035 148.329,249.701 152,231.5C 149.048,235.34 147.048,239.673 146,244.5C 143.107,260.856 140.107,277.189 137,293.5C 134.267,301.46 130.101,308.627 124.5,315C 121.205,317.434 117.538,319.101 113.5,320C 105.481,320.61 97.4812,320.443 89.5,319.5C 89.6665,308.162 89.4999,296.828 89,285.5C 86.5126,296.088 84.3459,306.755 82.5,317.5C 66.701,315.121 51.0344,312.121 35.5,308.5C 35.5,309.833 35.5,311.167 35.5,312.5C 50.5248,315.372 65.5248,318.372 80.5,321.5C 78.5275,334.57 73.6942,346.57 66,357.5C 64.9887,358.337 63.8221,358.67 62.5,358.5C 62.2071,352.107 62.5404,345.773 63.5,339.5C 62.9984,338.479 62.3317,338.312 61.5,339C 58.3493,341.35 56.6826,344.516 56.5,348.5C 54.6686,344.668 53.3353,340.668 52.5,336.5C 55.5641,336.856 58.2307,336.023 60.5,334C 54.8,333.457 49.9666,335.29 46,339.5C 45.7752,343.811 44.9419,347.978 43.5,352C 44.0427,354.881 45.7094,356.881 48.5,358C 50.4727,358.495 52.4727,358.662 54.5,358.5C 54.0074,356.194 53.6741,353.861 53.5,351.5C 55.1667,351.5 56.8333,351.5 58.5,351.5C 58.0466,355.426 59.3799,358.592 62.5,361C 55.0384,368.894 46.3717,375.061 36.5,379.5C 27.7913,383.173 18.7913,386.339 9.5,389C 12.4816,389.498 15.4816,389.665 18.5,389.5C 21.8462,391.324 25.5128,391.99 29.5,391.5C 29.5172,393.565 29.8505,395.565 30.5,397.5C 20.1667,397.5 9.83333,397.5 -0.5,397.5C -0.5,393.167 -0.5,388.833 -0.5,384.5C 1.81586,381.905 4.14919,379.239 6.5,376.5C 5.27704,375.386 3.94371,375.219 2.5,376C 2.01079,378.209 1.01079,380.042 -0.5,381.5C -0.5,376.167 -0.5,370.833 -0.5,365.5C 8.08129,352.117 10.9146,337.451 8,321.5C 6.36958,315.101 3.86958,309.101 0.5,303.5C 15.7146,301.156 30.7146,297.656 45.5,293C 52,291.167 56.1667,287 58,280.5C 58.3985,274.144 58.0651,267.811 57,261.5C 52.0276,249.639 50.0276,237.306 51,224.5C 61.4721,200.701 77.6387,181.867 99.5,168C 113.059,162.556 127.059,159.556 141.5,159C 105.459,152.427 73.1253,160.427 44.5,183C 39.2538,187.575 34.7538,192.742 31,198.5C 26.8314,206.683 26.4981,215.016 30,223.5C 35.6667,233.167 41.3333,242.833 47,252.5C 53.7268,267.524 49.5601,278.024 34.5,284C 28.1667,284.667 21.8333,284.667 15.5,284C 10.1362,282.493 4.80289,280.993 -0.5,279.5C -0.5,250.833 -0.5,222.167 -0.5,193.5C 12.4942,187.822 25.4942,181.989 38.5,176C 47.3977,169.371 51.231,160.537 50,149.5C 47.1312,137.766 42.1312,127.099 35,117.5C 31.3855,107.659 28.3855,97.6589 26,87.5C 23.0588,72.4887 25.8922,58.822 34.5,46.5C 34.6107,45.8826 34.944,45.3826 35.5,45C 38.146,44.5026 40.8127,44.3359 43.5,44.5C 44.5,45.1667 45.5,45.8333 46.5,46.5C 55.4518,55.24 66.1185,58.0733 78.5,55C 86.0096,51.4905 93.0096,47.1572 99.5,42C 106.052,40.7482 112.052,41.9149 117.5,45.5 Z"/></g>
<g><path style="opacity:1" fill="#93a9f8" d="M 263.5,42.5 C 264.5,42.5 265.5,42.5 266.5,42.5C 264.778,46.6164 264.278,50.9497 265,55.5C 267.571,62.7387 271.737,68.9053 277.5,74C 275.711,74.5205 274.044,74.1871 272.5,73C 266.258,67.4286 260.758,61.262 256,54.5C 255.313,52.4325 255.48,50.4325 256.5,48.5C 258.878,46.448 261.211,44.448 263.5,42.5 Z"/></g>
<g><path style="opacity:1" fill="#546ec4" d="M 28.5,33.5 C 24.7435,38.0074 21.7435,43.0074 19.5,48.5C 20,48.8333 20.5,49.1667 21,49.5C 25.3534,47.7863 29.8534,46.7863 34.5,46.5C 25.8922,58.822 23.0588,72.4887 26,87.5C 28.3855,97.6589 31.3855,107.659 35,117.5C 42.1312,127.099 47.1312,137.766 50,149.5C 51.231,160.537 47.3977,169.371 38.5,176C 25.4942,181.989 12.4942,187.822 -0.5,193.5C -0.5,189.5 -0.5,185.5 -0.5,181.5C 16.7361,170.368 25.0694,154.368 24.5,133.5C 23.7697,113.681 20.2697,94.3473 14,75.5C 12.5482,67.3879 13.7149,59.7213 17.5,52.5C 10.9174,51.7756 4.91743,53.4422 -0.5,57.5C -0.5,52.1667 -0.5,46.8333 -0.5,41.5C 8.54101,36.8275 18.2077,34.1609 28.5,33.5 Z"/></g>
<g><path style="opacity:1" fill="#93aaf8" d="M 268.5,50.5 C 269.873,50.3433 271.207,50.51 272.5,51C 277.03,57.0421 282.03,62.7088 287.5,68C 292.074,71.4253 296.74,74.592 301.5,77.5C 293.271,80.7086 285.938,79.2086 279.5,73C 271.515,67.5403 267.848,60.0403 268.5,50.5 Z"/></g>
<g><path style="opacity:1" fill="#94aaf9" d="M -0.5,181.5 C -0.5,140.167 -0.5,98.8333 -0.5,57.5C 4.91743,53.4422 10.9174,51.7756 17.5,52.5C 13.7149,59.7213 12.5482,67.3879 14,75.5C 20.2697,94.3473 23.7697,113.681 24.5,133.5C 25.0694,154.368 16.7361,170.368 -0.5,181.5 Z"/></g>
<g><path style="opacity:1" fill="#bab4a8" d="M 129.5,36.5 C 137.167,42.5 144.833,48.5 152.5,54.5C 155.847,58.1806 159.514,61.5139 163.5,64.5C 164.452,62.9547 164.785,61.288 164.5,59.5C 165.117,59.3893 165.617,59.056 166,58.5C 172.717,64.9389 178.217,72.2722 182.5,80.5C 184.246,82.2516 186.246,83.5849 188.5,84.5C 190.822,86.664 193.489,88.3307 196.5,89.5C 212.133,100.315 229.133,108.482 247.5,114C 259.501,117.25 271.501,117.25 283.5,114C 297.152,109.45 310.485,104.116 323.5,98C 334.959,94.7362 346.626,93.7362 358.5,95C 361.104,95.3903 363.438,96.2237 365.5,97.5C 364.167,97.5 362.833,97.5 361.5,97.5C 348.357,95.2447 335.691,96.9113 323.5,102.5C 310.031,108.069 296.697,113.902 283.5,120C 273.75,123.269 263.75,124.269 253.5,123C 232.729,115.613 212.729,106.613 193.5,96C 185.604,89.9137 178.271,83.4137 171.5,76.5C 158.052,64.2721 144.386,52.2721 130.5,40.5C 129.571,39.3112 129.238,37.9778 129.5,36.5 Z"/></g>
<g><path style="opacity:1" fill="#b7aa8b" d="M 122.5,54.5 C 123.376,54.3691 124.043,54.7025 124.5,55.5C 135.098,73.6926 144.931,92.3593 154,111.5C 161.005,122.514 169.505,132.347 179.5,141C 204.047,159.269 231.38,171.602 261.5,178C 264.079,179.076 265.746,180.909 266.5,183.5C 266.634,185.292 266.301,186.958 265.5,188.5C 264.833,188.5 264.5,188.833 264.5,189.5C 263.599,190.29 262.932,191.29 262.5,192.5C 261.5,192.833 260.833,193.5 260.5,194.5C 258.77,195.026 257.436,196.026 256.5,197.5C 255.508,197.328 254.842,197.662 254.5,198.5C 253.5,198.833 252.833,199.5 252.5,200.5C 251.5,200.833 250.833,201.5 250.5,202.5C 243.921,207.308 236.587,210.475 228.5,212C 227.152,216.001 224.485,217.334 220.5,216C 218.444,214.481 216.11,213.647 213.5,213.5C 210.826,214.515 208.159,215.515 205.5,216.5C 205.389,215.883 205.056,215.383 204.5,215C 210.588,211.154 217.255,209.488 224.5,210C 226.5,208.667 228.5,207.333 230.5,206C 242.134,205.028 250.467,199.361 255.5,189C 255.167,188.5 254.833,188 254.5,187.5C 235.303,200.959 214.303,205.126 191.5,200C 187.44,198.311 183.773,196.144 180.5,193.5C 192.219,195.212 203.552,193.879 214.5,189.5C 217.232,188.134 219.899,186.801 222.5,185.5C 223.198,183.333 224.531,181.5 226.5,180C 205.889,173.531 187.222,163.698 170.5,150.5C 163.1,142.926 156.6,134.592 151,125.5C 138.853,102.893 129.353,79.2265 122.5,54.5 Z"/></g>
<g><path style="opacity:1" fill="#5872c7" d="M 196.5,89.5 C 193.489,88.3307 190.822,86.664 188.5,84.5C 194.002,83.543 199.669,82.7097 205.5,82C 213.061,79.5528 220.394,76.5528 227.5,73C 233.237,72.2106 238.903,72.5439 244.5,74C 257.321,77.7421 268.654,84.0755 278.5,93C 282.397,96.3442 285.397,99.8442 287.5,103.5C 275.286,93.8882 261.953,86.0548 247.5,80C 241.5,79.3333 235.5,79.3333 229.5,80C 218.636,83.7728 207.636,86.9394 196.5,89.5 Z"/></g>
<g><path style="opacity:1" fill="#e2dbc3" d="M 171.5,76.5 C 178.271,83.4137 185.604,89.9137 193.5,96C 212.729,106.613 232.729,115.613 253.5,123C 263.75,124.269 273.75,123.269 283.5,120C 296.697,113.902 310.031,108.069 323.5,102.5C 327.871,101.535 332.204,100.701 336.5,100C 319.167,111.333 301.833,122.667 284.5,134C 277.833,134.333 271.167,134.667 264.5,135C 259.48,139.004 253.813,140.337 247.5,139C 240.39,136.611 233.39,133.944 226.5,131C 222.5,128.333 218.5,125.667 214.5,123C 205.307,114.472 196.141,105.972 187,97.5C 181.205,90.8853 176.039,83.8853 171.5,76.5 Z"/></g>
<g><path style="opacity:1" fill="#92a8f7" d="M 306.5,76.5 C 307.978,76.238 309.311,76.5713 310.5,77.5C 303.949,84.3623 295.949,87.1956 286.5,86C 284.077,84.4293 282.744,82.2626 282.5,79.5C 289.545,82.2466 296.545,82.08 303.5,79C 304.942,78.6232 305.942,77.7899 306.5,76.5 Z"/></g>
<g><path style="opacity:0.995" fill="#f57558" d="M 433.5,133.5 C 432.5,133.5 431.5,133.5 430.5,133.5C 430.5,131.833 430.5,130.167 430.5,128.5C 430.5,126.167 430.5,123.833 430.5,121.5C 427.671,121.325 426.004,122.658 425.5,125.5C 424.935,123.456 423.935,121.79 422.5,120.5C 421.348,119.375 420.348,119.375 419.5,120.5C 418.833,119.833 418.167,119.167 417.5,118.5C 416.599,116.273 414.933,115.273 412.5,115.5C 411.035,111.976 410.035,108.309 409.5,104.5C 416.812,105.273 424.145,105.439 431.5,105C 433.439,108.027 435.939,110.527 439,112.5C 439.972,118.903 438.306,124.569 434,129.5C 433.51,130.793 433.343,132.127 433.5,133.5 Z"/></g>
<g><path style="opacity:1" fill="#cdc6ad" d="M 376.5,103.5 C 380.008,105.425 381.341,108.425 380.5,112.5C 370.91,108.071 361.577,108.571 352.5,114C 345.069,119.427 338.236,125.593 332,132.5C 324.615,141.55 317.615,150.884 311,160.5C 303.318,170.853 293.818,179.02 282.5,185C 276.964,186.855 271.298,188.022 265.5,188.5C 266.301,186.958 266.634,185.292 266.5,183.5C 277.017,183.072 286.35,179.572 294.5,173C 305.382,159.786 315.882,146.286 326,132.5C 332.167,125 339,118.167 346.5,112C 356.103,106.939 366.103,104.106 376.5,103.5 Z"/></g>
<g><path style="opacity:1" fill="#cfa290" d="M 412.5,115.5 C 414.933,115.273 416.599,116.273 417.5,118.5C 416.833,118.5 416.5,118.833 416.5,119.5C 413.918,119.975 411.918,119.308 410.5,117.5C 411.833,117.5 412.5,116.833 412.5,115.5 Z"/></g>
<g><path style="opacity:0.988" fill="#3448b3" d="M 410.5,117.5 C 411.918,119.308 413.918,119.975 416.5,119.5C 417.694,121.484 417.694,123.484 416.5,125.5C 414.343,126.05 412.343,126.717 410.5,127.5C 408.974,126.508 408.307,125.008 408.5,123C 408.393,120.779 409.06,118.946 410.5,117.5 Z"/></g>
<g><path style="opacity:1" fill="#faefd5" d="M 260.5,194.5 C 260.833,193.5 261.5,192.833 262.5,192.5C 292.866,192.658 318.033,181.325 338,158.5C 344.927,148.388 349.927,137.388 353,125.5C 355.586,122.277 358.752,120.943 362.5,121.5C 355.036,148.946 339.036,169.78 314.5,184C 305.604,188.781 296.271,192.448 286.5,195C 277.657,195.824 268.99,195.657 260.5,194.5 Z"/></g>
<g><path style="opacity:1" fill="#f6ecd5" d="M 377.5,122.5 C 376.703,126.223 375.703,129.89 374.5,133.5C 371.948,141.482 368.615,149.149 364.5,156.5C 362.668,155.752 361.001,154.752 359.5,153.5C 365.826,143.519 370.492,132.853 373.5,121.5C 374.959,121.433 376.292,121.766 377.5,122.5 Z"/></g>
<g><path style="opacity:1" fill="#8d8cad" d="M 422.5,120.5 C 422.657,121.873 422.49,123.207 422,124.5C 421.023,125.774 420.189,125.774 419.5,124.5C 419.5,123.167 419.5,121.833 419.5,120.5C 420.348,119.375 421.348,119.375 422.5,120.5 Z"/></g>
<g><path style="opacity:1" fill="#3b56b2" d="M 95.5,123.5 C 96.8221,123.33 97.9887,123.663 99,124.5C 99.3924,127.188 99.8924,129.855 100.5,132.5C 99.5879,135.3 97.5879,136.633 94.5,136.5C 94.5,135.167 94.5,133.833 94.5,132.5C 93.5,132.5 92.5,132.5 91.5,132.5C 91.762,133.978 91.4287,135.311 90.5,136.5C 89.1667,132.833 89.1667,129.167 90.5,125.5C 91.9705,126.381 92.8038,127.714 93,129.5C 93.6552,127.372 94.4886,125.372 95.5,123.5 Z"/></g>
<g><path style="opacity:1" fill="#fbd8d7" d="M 422.5,120.5 C 423.935,121.79 424.935,123.456 425.5,125.5C 426.004,122.658 427.671,121.325 430.5,121.5C 430.5,123.833 430.5,126.167 430.5,128.5C 428.949,135.96 424.282,139.627 416.5,139.5C 414.83,139.249 413.33,138.582 412,137.5C 411.752,134.081 411.252,130.747 410.5,127.5C 412.857,127.663 415.19,127.497 417.5,127C 418.066,126.005 418.733,125.172 419.5,124.5C 420.189,125.774 421.023,125.774 422,124.5C 422.49,123.207 422.657,121.873 422.5,120.5 Z"/></g>
<g><path style="opacity:1" fill="#efb764" d="M 417.5,118.5 C 418.167,119.167 418.833,119.833 419.5,120.5C 419.5,121.833 419.5,123.167 419.5,124.5C 418.733,125.172 418.066,126.005 417.5,127C 415.19,127.497 412.857,127.663 410.5,127.5C 412.343,126.717 414.343,126.05 416.5,125.5C 417.694,123.484 417.694,121.484 416.5,119.5C 416.5,118.833 416.833,118.5 417.5,118.5 Z"/></g>
<g><path style="opacity:1" fill="#f9eed4" d="M 380.5,112.5 C 381.885,115.285 381.218,117.618 378.5,119.5C 377.547,117.39 375.881,116.223 373.5,116C 364.427,115.469 356.427,118.136 349.5,124C 336.983,136.519 325.15,149.685 314,163.5C 306.418,171.086 298.252,177.919 289.5,184C 313.66,177.174 330.16,162.007 339,138.5C 342.333,134.5 346,130.833 350,127.5C 346.768,139.627 341.102,150.627 333,160.5C 315.256,179.286 293.423,189.286 267.5,190.5C 266.274,190.48 265.274,190.147 264.5,189.5C 264.5,188.833 264.833,188.5 265.5,188.5C 271.298,188.022 276.964,186.855 282.5,185C 293.818,179.02 303.318,170.853 311,160.5C 317.615,150.884 324.615,141.55 332,132.5C 338.236,125.593 345.069,119.427 352.5,114C 361.577,108.571 370.91,108.071 380.5,112.5 Z"/></g>
<g><path style="opacity:1" fill="#d5ccb1" d="M 378.5,119.5 C 378.737,120.791 378.404,121.791 377.5,122.5C 376.292,121.766 374.959,121.433 373.5,121.5C 370.492,132.853 365.826,143.519 359.5,153.5C 358.141,154.007 357.141,155.007 356.5,156.5C 355.893,156.376 355.56,156.043 355.5,155.5C 362.279,143.946 367.945,131.946 372.5,119.5C 369.881,119.232 367.381,119.565 365,120.5C 361.998,131.897 357.498,142.564 351.5,152.5C 350.662,152.842 350.328,153.508 350.5,154.5C 333.514,177.611 310.848,192.111 282.5,198C 273.817,198.587 265.151,198.42 256.5,197.5C 257.436,196.026 258.77,195.026 260.5,194.5C 268.99,195.657 277.657,195.824 286.5,195C 296.271,192.448 305.604,188.781 314.5,184C 339.036,169.78 355.036,148.946 362.5,121.5C 358.752,120.943 355.586,122.277 353,125.5C 349.927,137.388 344.927,148.388 338,158.5C 318.033,181.325 292.866,192.658 262.5,192.5C 262.932,191.29 263.599,190.29 264.5,189.5C 265.274,190.147 266.274,190.48 267.5,190.5C 293.423,189.286 315.256,179.286 333,160.5C 341.102,150.627 346.768,139.627 350,127.5C 346,130.833 342.333,134.5 339,138.5C 330.16,162.007 313.66,177.174 289.5,184C 298.252,177.919 306.418,171.086 314,163.5C 325.15,149.685 336.983,136.519 349.5,124C 356.427,118.136 364.427,115.469 373.5,116C 375.881,116.223 377.547,117.39 378.5,119.5 Z"/></g>
<g><path style="opacity:1" fill="#faefd5" d="M 355.5,155.5 C 354.167,154.5 352.833,153.5 351.5,152.5C 357.498,142.564 361.998,131.897 365,120.5C 367.381,119.565 369.881,119.232 372.5,119.5C 367.945,131.946 362.279,143.946 355.5,155.5 Z"/></g>
<g><path style="opacity:1" fill="#203b99" d="M 382.5,126.5 C 383.178,130.374 382.178,134.041 379.5,137.5C 378.251,133.244 379.251,129.577 382.5,126.5 Z"/></g>
<g><path style="opacity:0.986" fill="#f3b5b6" d="M 430.5,128.5 C 430.5,130.167 430.5,131.833 430.5,133.5C 431.5,133.5 432.5,133.5 433.5,133.5C 433.5,134.833 433.5,136.167 433.5,137.5C 429.776,140.639 425.443,142.639 420.5,143.5C 419.5,141.833 418.167,140.5 416.5,139.5C 424.282,139.627 428.949,135.96 430.5,128.5 Z"/></g>
<g><path style="opacity:1" fill="#193593" d="M 36.5,137.5 C 43.3419,148.538 41.3419,157.871 30.5,165.5C 29.8279,163.14 30.6612,161.14 33,159.5C 35.7705,152.419 36.9372,145.086 36.5,137.5 Z"/></g>
<g><path style="opacity:1" fill="#1a3593" d="M 23.5,101.5 C 32.51,116.673 40.6767,132.339 48,148.5C 47.959,168.541 37.7924,178.708 17.5,179C 14.2577,180.639 10.9243,181.639 7.5,182C 17.2987,176.599 26.9654,170.932 36.5,165C 43.9558,157.271 45.4558,148.438 41,138.5C 34.0899,126.68 28.2566,114.346 23.5,101.5 Z"/></g>
<g><path style="opacity:0.997" fill="#ecb5bd" d="M 388.5,139.5 C 389.349,142.681 391.015,145.348 393.5,147.5C 393.271,149.433 392.438,151.1 391,152.5C 390.184,153.823 389.017,154.489 387.5,154.5C 385.178,153.198 383.845,151.198 383.5,148.5C 383.617,146.516 382.95,144.85 381.5,143.5C 382.025,142.808 382.692,142.308 383.5,142C 381.744,141.798 380.078,141.298 378.5,140.5C 378.667,140.167 378.833,139.833 379,139.5C 382.071,138.862 385.237,138.862 388.5,139.5 Z"/></g>
<g><path style="opacity:0.966" fill="#08418c" d="M 435.5,138.5 C 439.061,142.603 441.894,147.27 444,152.5C 445.348,159.893 447.015,167.227 449,174.5C 451.83,190.419 452.33,206.419 450.5,222.5C 447.692,223.929 444.692,224.595 441.5,224.5C 449.975,195.447 447.641,167.28 434.5,140C 435.056,139.617 435.389,139.117 435.5,138.5 Z"/></g>
<g><path style="opacity:1" fill="#fad4d3" d="M 351.5,152.5 C 352.833,153.5 354.167,154.5 355.5,155.5C 355.56,156.043 355.893,156.376 356.5,156.5C 357.141,155.007 358.141,154.007 359.5,153.5C 361.001,154.752 362.668,155.752 364.5,156.5C 364.957,158.773 366.29,160.106 368.5,160.5C 369.73,162.297 370.396,164.297 370.5,166.5C 368.817,169.577 366.484,171.91 363.5,173.5C 361.566,172.89 359.899,171.89 358.5,170.5C 357.737,168.632 356.737,166.965 355.5,165.5C 355.443,164.391 355.11,163.391 354.5,162.5C 354.443,161.391 354.11,160.391 353.5,159.5C 352.89,157.566 351.89,155.899 350.5,154.5C 350.328,153.508 350.662,152.842 351.5,152.5 Z"/></g>
<g><path style="opacity:1" fill="#f8edd4" d="M 350.5,154.5 C 351.89,155.899 352.89,157.566 353.5,159.5C 335.585,180.132 313.251,193.632 286.5,200C 276.833,200.667 267.167,200.667 257.5,200C 256.263,199.768 255.263,199.268 254.5,198.5C 254.842,197.662 255.508,197.328 256.5,197.5C 265.151,198.42 273.817,198.587 282.5,198C 310.848,192.111 333.514,177.611 350.5,154.5 Z"/></g>
<g><path style="opacity:1" fill="#556ec4" d="M -0.5,365.5 C -0.5,336.833 -0.5,308.167 -0.5,279.5C 4.80289,280.993 10.1362,282.493 15.5,284C 21.8333,284.667 28.1667,284.667 34.5,284C 49.5601,278.024 53.7268,267.524 47,252.5C 41.3333,242.833 35.6667,233.167 30,223.5C 26.4981,215.016 26.8314,206.683 31,198.5C 34.7538,192.742 39.2538,187.575 44.5,183C 73.1253,160.427 105.459,152.427 141.5,159C 127.059,159.556 113.059,162.556 99.5,168C 77.6387,181.867 61.4721,200.701 51,224.5C 50.0276,237.306 52.0276,249.639 57,261.5C 58.0651,267.811 58.3985,274.144 58,280.5C 56.1667,287 52,291.167 45.5,293C 30.7146,297.656 15.7146,301.156 0.5,303.5C 3.86958,309.101 6.36958,315.101 8,321.5C 10.9146,337.451 8.08129,352.117 -0.5,365.5 Z"/></g>
<g><path style="opacity:1" fill="#cdc5ad" d="M 170.5,150.5 C 187.222,163.698 205.889,173.531 226.5,180C 224.531,181.5 223.198,183.333 222.5,185.5C 215.621,182.4 208.621,179.233 201.5,176C 195.073,171.799 188.74,167.633 182.5,163.5C 177.792,159.793 173.792,155.46 170.5,150.5 Z"/></g>
<g><path style="opacity:1" fill="#f8edd3" d="M 354.5,162.5 C 355.11,163.391 355.443,164.391 355.5,165.5C 350.395,172.439 344.395,178.606 337.5,184C 328.453,189.524 319.12,194.524 309.5,199C 299.769,201.706 290.102,204.206 280.5,206.5C 276.833,206.5 273.167,206.5 269.5,206.5C 265.605,205.775 261.605,205.109 257.5,204.5C 255.106,203.985 252.772,203.319 250.5,202.5C 250.833,201.5 251.5,200.833 252.5,200.5C 271.239,205.036 289.572,203.536 307.5,196C 325.528,188.137 341.195,176.97 354.5,162.5 Z"/></g>
<g><path style="opacity:1" fill="#103768" d="M 433.5,137.5 C 434.167,137.833 434.833,138.167 435.5,138.5C 435.389,139.117 435.056,139.617 434.5,140C 447.641,167.28 449.975,195.447 441.5,224.5C 435.75,223.985 430.25,222.652 425,220.5C 417.408,223.739 409.574,224.739 401.5,223.5C 402.978,212.893 403.645,202.227 403.5,191.5C 396.725,192.874 390.058,192.374 383.5,190C 377.109,187.086 371.442,183.253 366.5,178.5C 369.205,174.795 372.538,171.795 376.5,169.5C 382.038,171.291 387.704,171.791 393.5,171C 395.019,169.649 396.352,168.149 397.5,166.5C 394.116,163.276 390.616,160.276 387,157.5C 386.53,156.423 386.697,155.423 387.5,154.5C 389.017,154.489 390.184,153.823 391,152.5C 392.438,151.1 393.271,149.433 393.5,147.5C 397.466,147.993 400.133,150.159 401.5,154C 403.081,154.707 404.581,155.54 406,156.5C 410.164,151.348 414.998,147.015 420.5,143.5C 425.443,142.639 429.776,140.639 433.5,137.5 Z"/></g>
<g><path style="opacity:0.989" fill="#17203f" d="M 376.5,169.5 C 372.538,171.795 369.205,174.795 366.5,178.5C 365.075,177.078 364.075,175.411 363.5,173.5C 366.484,171.91 368.817,169.577 370.5,166.5C 373.298,165.586 375.298,166.586 376.5,169.5 Z"/></g>
<g><path style="opacity:1" fill="#f5ecd7" d="M 182.5,163.5 C 188.74,167.633 195.073,171.799 201.5,176C 208.621,179.233 215.621,182.4 222.5,185.5C 219.899,186.801 217.232,188.134 214.5,189.5C 206.08,182.777 197.414,176.277 188.5,170C 186.294,167.963 184.294,165.797 182.5,163.5 Z"/></g>
<g><path style="opacity:0.972" fill="#f8eed7" d="M 356.5,171.5 C 354.646,177.525 350.812,181.858 345,184.5C 344.205,186.901 343.038,189.068 341.5,191C 336.942,193.73 332.275,196.23 327.5,198.5C 321.341,198.878 315.341,200.544 309.5,203.5C 306.193,204.051 302.86,204.384 299.5,204.5C 311.629,200.614 323.296,195.447 334.5,189C 341.727,182.929 349.06,177.096 356.5,171.5 Z"/></g>
<g><path style="opacity:1" fill="#1c3895" d="M 57.5,178.5 C 58.0431,178.56 58.3764,178.893 58.5,179.5C 52.2179,191.394 47.0513,203.727 43,216.5C 42.3844,209.619 43.3844,202.952 46,196.5C 49.2678,190.08 53.1012,184.08 57.5,178.5 Z"/></g>
<g><path style="opacity:1" fill="#c7bfa7" d="M 205.5,216.5 C 193.261,213.966 183.094,207.966 175,198.5C 172.692,192.749 174.526,191.082 180.5,193.5C 183.773,196.144 187.44,198.311 191.5,200C 214.303,205.126 235.303,200.959 254.5,187.5C 254.833,188 255.167,188.5 255.5,189C 250.467,199.361 242.134,205.028 230.5,206C 228.5,207.333 226.5,208.667 224.5,210C 217.255,209.488 210.588,211.154 204.5,215C 205.056,215.383 205.389,215.883 205.5,216.5 Z"/></g>
<g><path style="opacity:1" fill="#d2cab2" d="M 355.5,165.5 C 356.737,166.965 357.737,168.632 358.5,170.5C 357.508,170.328 356.842,170.662 356.5,171.5C 349.06,177.096 341.727,182.929 334.5,189C 323.296,195.447 311.629,200.614 299.5,204.5C 299.5,204.833 299.5,205.167 299.5,205.5C 293.19,206.19 286.857,206.524 280.5,206.5C 290.102,204.206 299.769,201.706 309.5,199C 319.12,194.524 328.453,189.524 337.5,184C 344.395,178.606 350.395,172.439 355.5,165.5 Z"/></g>
<g><path style="opacity:1" fill="#d3ccb2" d="M 353.5,159.5 C 354.11,160.391 354.443,161.391 354.5,162.5C 341.195,176.97 325.528,188.137 307.5,196C 289.572,203.536 271.239,205.036 252.5,200.5C 252.833,199.5 253.5,198.833 254.5,198.5C 255.263,199.268 256.263,199.768 257.5,200C 267.167,200.667 276.833,200.667 286.5,200C 313.251,193.632 335.585,180.132 353.5,159.5 Z"/></g>
<g><path style="opacity:0.996" fill="#6681dc" d="M 327.5,198.5 C 331.189,219.992 324.189,237.158 306.5,250C 298.986,253.923 291.319,257.59 283.5,261C 266.567,266.533 249.567,271.866 232.5,277C 224.871,280.413 218.371,285.246 213,291.5C 208.859,299.061 207.026,307.227 207.5,316C 207.557,329.748 209.39,343.248 213,356.5C 215.013,371.095 212.513,384.762 205.5,397.5C 169.167,397.5 132.833,397.5 96.5,397.5C 96.5,395.167 96.5,392.833 96.5,390.5C 96.5,388.833 96.5,387.167 96.5,385.5C 99.3275,380.537 101.494,375.203 103,369.5C 107.744,361.421 113.91,354.588 121.5,349C 126.331,346.938 131.331,346.271 136.5,347C 139.167,348.333 141.167,350.333 142.5,353C 146.638,355.299 149.972,354.465 152.5,350.5C 158.052,342.412 162.885,333.745 167,324.5C 167.667,321.167 167.667,317.833 167,314.5C 163.823,310.325 160.323,306.492 156.5,303C 162.77,298.291 164.936,292.124 163,284.5C 161.701,281.994 160.701,279.327 160,276.5C 157.16,262.012 162.993,253.512 177.5,251C 190.163,251.127 202.83,251.127 215.5,251C 223.05,251.054 229.384,248.554 234.5,243.5C 234.5,243.167 234.5,242.833 234.5,242.5C 234.547,239.432 235.047,236.432 236,233.5C 237.11,231.963 238.61,231.297 240.5,231.5C 240.833,231.5 241.167,231.5 241.5,231.5C 238.964,234.007 238.131,237.007 239,240.5C 243.997,254.748 253.831,259.581 268.5,255C 278.744,252.806 286.577,247.306 292,238.5C 293.266,231.451 290.433,227.618 283.5,227C 279.579,231.914 276.079,237.081 273,242.5C 270.405,245.264 267.238,246.931 263.5,247.5C 261.626,247.61 260.126,246.944 259,245.5C 257.661,240.264 257.161,234.93 257.5,229.5C 259.767,228.577 262.1,227.744 264.5,227C 266.11,221.566 269.777,219.066 275.5,219.5C 275.338,217.473 275.505,215.473 276,213.5C 277.75,211.266 279.25,208.932 280.5,206.5C 286.857,206.524 293.19,206.19 299.5,205.5C 300.097,205.735 300.43,206.235 300.5,207C 299.78,210.152 299.113,213.319 298.5,216.5C 298.453,218 299.119,219 300.5,219.5C 306.48,215.935 309.48,210.601 309.5,203.5C 315.341,200.544 321.341,198.878 327.5,198.5 Z"/></g>
<g><path style="opacity:1" fill="#96abf7" d="M 309.5,203.5 C 309.48,210.601 306.48,215.935 300.5,219.5C 299.119,219 298.453,218 298.5,216.5C 299.113,213.319 299.78,210.152 300.5,207C 300.43,206.235 300.097,205.735 299.5,205.5C 299.5,205.167 299.5,204.833 299.5,204.5C 302.86,204.384 306.193,204.051 309.5,203.5 Z"/></g>
<g><path style="opacity:1" fill="#b7aa8a" d="M 257.5,204.5 C 261.605,205.109 265.605,205.775 269.5,206.5C 263.218,216.072 254.384,222.072 243,224.5C 241.93,224.472 241.097,224.139 240.5,223.5C 247.928,218.739 253.594,212.406 257.5,204.5 Z"/></g>
<g><path style="opacity:1" fill="#c3bba3" d="M 269.5,206.5 C 273.167,206.5 276.833,206.5 280.5,206.5C 279.25,208.932 277.75,211.266 276,213.5C 275.505,215.473 275.338,217.473 275.5,219.5C 269.777,219.066 266.11,221.566 264.5,227C 262.1,227.744 259.767,228.577 257.5,229.5C 252.304,231.087 246.97,231.754 241.5,231.5C 241.167,231.5 240.833,231.5 240.5,231.5C 232.534,229.307 232.534,226.64 240.5,223.5C 241.097,224.139 241.93,224.472 243,224.5C 254.384,222.072 263.218,216.072 269.5,206.5 Z"/></g>
<g><path style="opacity:1" fill="#415bb6" d="M 66.5,207.5 C 68.0174,207.511 69.1841,208.177 70,209.5C 70.6667,211.833 70.6667,214.167 70,216.5C 67.1065,219.424 65.9399,219.09 66.5,215.5C 65.675,214.614 64.675,214.281 63.5,214.5C 63.6567,215.873 63.49,217.207 63,218.5C 62.2825,219.451 61.4491,219.617 60.5,219C 62.0663,216.07 62.8996,212.903 63,209.5C 65.175,213.097 66.3416,212.431 66.5,207.5 Z"/></g>
<g><path style="opacity:0.986" fill="#051e42" d="M 441.5,224.5 C 444.692,224.595 447.692,223.929 450.5,222.5C 450.599,225.237 450.265,227.904 449.5,230.5C 440.461,233.242 432.795,231.242 426.5,224.5C 425.735,224.077 424.902,223.743 424,223.5C 416.582,227.706 408.748,229.039 400.5,227.5C 401.234,226.292 401.567,224.959 401.5,223.5C 409.574,224.739 417.408,223.739 425,220.5C 430.25,222.652 435.75,223.985 441.5,224.5 Z"/></g>
<g><path style="opacity:0.995" fill="#4f73f4" d="M 426.5,224.5 C 427.014,226.617 427.347,228.784 427.5,231C 426.284,242.168 425.45,253.334 425,264.5C 427.104,254.121 431.938,245.287 439.5,238C 442.916,237.107 446.083,237.607 449,239.5C 448.607,257.986 448.107,276.486 447.5,295C 447.667,301.5 447.833,308 448,314.5C 448.698,317.004 449.531,319.337 450.5,321.5C 451.276,329.621 451.609,337.954 451.5,346.5C 446.167,346.5 440.833,346.5 435.5,346.5C 432.124,323.45 428.291,300.45 424,277.5C 421.538,300.734 419.038,324.067 416.5,347.5C 411.167,347.5 405.833,347.5 400.5,347.5C 398.467,329.2 396.8,310.866 395.5,292.5C 397.347,274.185 399.013,255.852 400.5,237.5C 400.5,234.167 400.5,230.833 400.5,227.5C 408.748,229.039 416.582,227.706 424,223.5C 424.902,223.743 425.735,224.077 426.5,224.5 Z"/></g>
<g><path style="opacity:1" fill="#8199ed" d="M 241.5,231.5 C 246.97,231.754 252.304,231.087 257.5,229.5C 257.161,234.93 257.661,240.264 259,245.5C 260.126,246.944 261.626,247.61 263.5,247.5C 267.238,246.931 270.405,245.264 273,242.5C 276.079,237.081 279.579,231.914 283.5,227C 290.433,227.618 293.266,231.451 292,238.5C 286.577,247.306 278.744,252.806 268.5,255C 253.831,259.581 243.997,254.748 239,240.5C 238.131,237.007 238.964,234.007 241.5,231.5 Z"/></g>
<g><path style="opacity:0.987" fill="#2745a6" d="M 426.5,224.5 C 432.795,231.242 440.461,233.242 449.5,230.5C 450.436,260.819 450.769,291.152 450.5,321.5C 449.531,319.337 448.698,317.004 448,314.5C 447.833,308 447.667,301.5 447.5,295C 448.107,276.486 448.607,257.986 449,239.5C 446.083,237.607 442.916,237.107 439.5,238C 431.938,245.287 427.104,254.121 425,264.5C 425.45,253.334 426.284,242.168 427.5,231C 427.347,228.784 427.014,226.617 426.5,224.5 Z"/></g>
<g><path style="opacity:1" fill="#c9ccd8" d="M 196.5,226.5 C 200.384,229.219 203.384,232.719 205.5,237C 209.773,238.03 214.106,238.697 218.5,239C 214.833,239.667 211.167,239.667 207.5,239C 202.199,236.851 196.866,235.017 191.5,233.5C 192.391,232.41 193.391,232.41 194.5,233.5C 195.006,230.75 196.34,230.916 198.5,234C 199.5,234.667 200.5,234.667 201.5,234C 199.585,231.6 197.919,229.1 196.5,226.5 Z"/></g>
<g><path style="opacity:1" fill="#bcc4e0" d="M 234.5,242.5 C 234.5,242.833 234.5,243.167 234.5,243.5C 231.011,244.93 227.344,245.764 223.5,246C 214.167,246.667 204.833,246.667 195.5,246C 191.057,245.576 187.057,244.076 183.5,241.5C 183.833,241.167 184.167,240.833 184.5,240.5C 186.607,241.637 188.773,242.637 191,243.5C 192.923,242.198 194.757,242.365 196.5,244C 209.233,244.817 221.9,244.317 234.5,242.5 Z"/></g>
<g><path style="opacity:1" fill="#829aed" d="M 208.5,254.5 C 216.263,253.765 222.096,256.765 226,263.5C 226.494,265.134 226.66,266.801 226.5,268.5C 220.361,266.739 214.028,266.239 207.5,267C 198.604,270.447 189.937,274.447 181.5,279C 176.572,280.643 173.072,279.143 171,274.5C 170.333,270.5 170.333,266.5 171,262.5C 171.5,262 172,261.5 172.5,261C 180.397,259.73 188.397,259.063 196.5,259C 200.503,257.151 204.503,255.651 208.5,254.5 Z"/></g>
<g><path style="opacity:0.941" fill="#233ea6" d="M 400.5,237.5 C 399.013,255.852 397.347,274.185 395.5,292.5C 394.462,273.965 396.128,255.632 400.5,237.5 Z"/></g>
<g><path style="opacity:1" fill="#14318f" d="M 13.5,286.5 C 20.5738,287.235 27.5738,288.401 34.5,290C 27.5426,291.245 20.5426,292.078 13.5,292.5C 13.5,290.5 13.5,288.5 13.5,286.5 Z"/></g>
<g><path style="opacity:1" fill="#829aed" d="M 175.5,290.5 C 185.083,289.606 188.583,293.939 186,303.5C 185.167,304.333 184.333,305.167 183.5,306C 179.5,306.667 175.5,306.667 171.5,306C 167.787,304.309 166.621,301.475 168,297.5C 170.396,294.933 172.896,292.6 175.5,290.5 Z"/></g>
<g><path style="opacity:1" fill="#b2bde7" d="M 149.5,328.5 C 149.589,324.7 148.922,321.034 147.5,317.5C 150.067,314.355 149.734,311.521 146.5,309C 148.244,303.195 146.577,298.695 141.5,295.5C 141.508,292.455 141.841,289.455 142.5,286.5C 143.458,286.953 144.292,287.619 145,288.5C 145.219,287.062 145.719,285.729 146.5,284.5C 146.12,288.508 146.62,292.508 148,296.5C 149,295.5 150,294.5 151,293.5C 151.167,293.833 151.333,294.167 151.5,294.5C 147.994,298.453 147.661,302.787 150.5,307.5C 152.729,306.037 155.063,305.203 157.5,305C 155.664,306.419 153.664,307.586 151.5,308.5C 150.191,311.652 150.524,314.652 152.5,317.5C 152.154,318.696 151.654,318.696 151,317.5C 150.823,321.356 150.323,325.023 149.5,328.5 Z"/></g>
<g><path style="opacity:1" fill="#9eb0f3" d="M 141.5,295.5 C 146.577,298.695 148.244,303.195 146.5,309C 149.734,311.521 150.067,314.355 147.5,317.5C 148.922,321.034 149.589,324.7 149.5,328.5C 148.521,329.765 147.521,331.099 146.5,332.5C 145.008,326.607 144.175,320.607 144,314.5C 143.667,314.833 143.333,315.167 143,315.5C 142.581,314.328 141.915,313.328 141,312.5C 142.198,316.479 143.031,320.646 143.5,325C 143.333,326.5 143.167,328 143,329.5C 141.887,328.695 140.721,328.028 139.5,327.5C 138.745,322.4 136.912,317.734 134,313.5C 134.385,316.589 135.052,319.589 136,322.5C 133.96,320.63 132.127,318.63 130.5,316.5C 135.505,310.155 139.172,303.155 141.5,295.5 Z"/></g>
<g><path style="opacity:1" fill="#829aed" d="M 177.5,314.5 C 178.496,314.414 179.329,314.748 180,315.5C 186.376,328.918 188.043,342.918 185,357.5C 181.237,364.355 177.904,364.022 175,356.5C 172.11,345.249 171.776,333.916 174,322.5C 174.906,319.69 176.073,317.024 177.5,314.5 Z"/></g>
<g><path style="opacity:1" fill="#b5bfe4" d="M 139.5,327.5 C 135.833,324.5 132.5,321.167 129.5,317.5C 129.5,316.833 129.833,316.5 130.5,316.5C 132.127,318.63 133.96,320.63 136,322.5C 135.052,319.589 134.385,316.589 134,313.5C 136.912,317.734 138.745,322.4 139.5,327.5 Z"/></g>
<g><path style="opacity:1" fill="#97acf8" d="M 129.5,317.5 C 132.5,321.167 135.833,324.5 139.5,327.5C 139.566,331.559 139.733,335.559 140,339.5C 137.708,338.21 135.708,336.543 134,334.5C 131.265,329.701 129.098,324.701 127.5,319.5C 127.833,318.5 128.5,317.833 129.5,317.5 Z"/></g>
<g><path style="opacity:1" fill="#92a9f8" d="M 197.5,321.5 C 199.167,321.5 200.833,321.5 202.5,321.5C 201.726,330.492 201.559,339.492 202,348.5C 204.672,355.016 206.839,361.682 208.5,368.5C 208.225,373.051 206.391,376.717 203,379.5C 202.055,379.095 201.388,378.428 201,377.5C 199.565,364.843 198.232,352.176 197,339.5C 196.212,333.418 196.379,327.418 197.5,321.5 Z"/></g>
<g><path style="opacity:1" fill="#93a9f6" d="M 91.5,323.5 C 91.208,333.922 90.0413,344.255 88,354.5C 87.2472,360.865 87.4138,367.198 88.5,373.5C 88.5613,375.721 87.8946,376.054 86.5,374.5C 86.0832,363.209 86.0832,351.876 86.5,340.5C 87.1342,334.855 87.4676,329.189 87.5,323.5C 88.8333,323.5 90.1667,323.5 91.5,323.5 Z"/></g>
<g><path style="opacity:1" fill="#97acf8" d="M 118.5,323.5 C 131.17,330.963 130.503,332.797 116.5,329C 121.232,331.466 126.232,333.133 131.5,334C 137.167,339 142.833,344 148.5,349C 149.745,349.791 151.078,350.291 152.5,350.5C 149.972,354.465 146.638,355.299 142.5,353C 141.167,350.333 139.167,348.333 136.5,347C 131.331,346.271 126.331,346.938 121.5,349C 113.91,354.588 107.744,361.421 103,369.5C 101.494,375.203 99.3275,380.537 96.5,385.5C 93.6791,374.938 94.0125,364.438 97.5,354C 97.0556,352.238 96.5556,352.405 96,354.5C 94.5241,359.093 93.3574,363.76 92.5,368.5C 92.1667,366.667 91.8333,364.833 91.5,363C 92.2105,355.023 93.3772,347.19 95,339.5C 92.3643,347.678 90.3643,356.011 89,364.5C 89.5803,355.105 90.9136,345.771 93,336.5C 93.4988,332.514 93.6655,328.514 93.5,324.5C 101.918,324.802 110.252,324.469 118.5,323.5 Z"/></g>
<g><path style="opacity:1" fill="#b8c1e3" d="M 149.5,328.5 C 149.38,330.199 149.046,331.865 148.5,333.5C 150.121,335.624 151.954,337.624 154,339.5C 156.248,336.672 158.248,333.672 160,330.5C 160.654,329.304 161.154,329.304 161.5,330.5C 159.416,334.336 157.083,338.003 154.5,341.5C 149.554,338.057 145.054,334.057 141,329.5C 140.333,331.5 140.333,333.5 141,335.5C 143.168,341.827 147.001,346.827 152.5,350.5C 151.078,350.291 149.745,349.791 148.5,349C 142.833,344 137.167,339 131.5,334C 126.232,333.133 121.232,331.466 116.5,329C 130.503,332.797 131.17,330.963 118.5,323.5C 121.314,321.93 124.314,320.597 127.5,319.5C 129.098,324.701 131.265,329.701 134,334.5C 135.708,336.543 137.708,338.21 140,339.5C 139.733,335.559 139.566,331.559 139.5,327.5C 140.721,328.028 141.887,328.695 143,329.5C 143.167,328 143.333,326.5 143.5,325C 143.031,320.646 142.198,316.479 141,312.5C 141.915,313.328 142.581,314.328 143,315.5C 143.333,315.167 143.667,314.833 144,314.5C 144.175,320.607 145.008,326.607 146.5,332.5C 147.521,331.099 148.521,329.765 149.5,328.5 Z"/></g>
<g><path style="opacity:1" fill="#415ab1" d="M 142.5,286.5 C 141.841,289.455 141.508,292.455 141.5,295.5C 139.172,303.155 135.505,310.155 130.5,316.5C 129.833,316.5 129.5,316.833 129.5,317.5C 128.5,317.833 127.833,318.5 127.5,319.5C 124.314,320.597 121.314,321.93 118.5,323.5C 110.252,324.469 101.918,324.802 93.5,324.5C 92.8333,324.167 92.1667,323.833 91.5,323.5C 90.1667,323.5 88.8333,323.5 87.5,323.5C 87.4676,329.189 87.1342,334.855 86.5,340.5C 85.5655,341.568 85.2322,342.901 85.5,344.5C 84.3307,347.341 83.3307,350.341 82.5,353.5C 81.8902,354.391 81.5569,355.391 81.5,356.5C 79.8993,359.55 78.8993,362.884 78.5,366.5C 77.0937,366.973 76.427,367.973 76.5,369.5C 72.4062,374.057 67.4062,377.39 61.5,379.5C 59.0221,380.883 56.3554,381.883 53.5,382.5C 48.7613,383.185 44.0946,384.185 39.5,385.5C 32.3779,386.845 25.3779,388.178 18.5,389.5C 15.4816,389.665 12.4816,389.498 9.5,389C 18.7913,386.339 27.7913,383.173 36.5,379.5C 46.3717,375.061 55.0384,368.894 62.5,361C 59.3799,358.592 58.0466,355.426 58.5,351.5C 56.8333,351.5 55.1667,351.5 53.5,351.5C 53.6741,353.861 54.0074,356.194 54.5,358.5C 52.4727,358.662 50.4727,358.495 48.5,358C 45.7094,356.881 44.0427,354.881 43.5,352C 44.9419,347.978 45.7752,343.811 46,339.5C 49.9666,335.29 54.8,333.457 60.5,334C 58.2307,336.023 55.5641,336.856 52.5,336.5C 53.3353,340.668 54.6686,344.668 56.5,348.5C 56.6826,344.516 58.3493,341.35 61.5,339C 62.3317,338.312 62.9984,338.479 63.5,339.5C 62.5404,345.773 62.2071,352.107 62.5,358.5C 63.8221,358.67 64.9887,358.337 66,357.5C 73.6942,346.57 78.5275,334.57 80.5,321.5C 65.5248,318.372 50.5248,315.372 35.5,312.5C 35.5,311.167 35.5,309.833 35.5,308.5C 51.0344,312.121 66.701,315.121 82.5,317.5C 84.3459,306.755 86.5126,296.088 89,285.5C 89.4999,296.828 89.6665,308.162 89.5,319.5C 97.4812,320.443 105.481,320.61 113.5,320C 117.538,319.101 121.205,317.434 124.5,315C 130.101,308.627 134.267,301.46 137,293.5C 140.107,277.189 143.107,260.856 146,244.5C 147.048,239.673 149.048,235.34 152,231.5C 148.329,249.701 145.162,268.035 142.5,286.5 Z"/></g>
<g><path style="opacity:1" fill="#819aed" d="M 160.5,339.5 C 161.5,339.5 162.5,339.5 163.5,339.5C 163.334,344.844 163.501,350.177 164,355.5C 164.518,358.023 165.852,360.023 168,361.5C 167.948,365.767 166.115,369.267 162.5,372C 154.749,377.807 146.082,380.14 136.5,379C 132.238,375.981 129.904,371.815 129.5,366.5C 129.806,363.468 130.306,360.468 131,357.5C 131.872,355.387 133.372,354.054 135.5,353.5C 139.256,355.126 142.756,357.126 146,359.5C 149.799,358.701 152.799,356.701 155,353.5C 157.138,348.946 158.971,344.279 160.5,339.5 Z"/></g>
<g><path style="opacity:1" fill="#cabe8b" d="M 435.5,346.5 C 440.833,346.5 446.167,346.5 451.5,346.5C 451.5,346.833 451.5,347.167 451.5,347.5C 446.056,346.892 441.056,347.558 436.5,349.5C 435.596,348.791 435.263,347.791 435.5,346.5 Z"/></g>
<g><path style="opacity:1" fill="#bbc3de" d="M 86.5,340.5 C 86.0832,351.876 86.0832,363.209 86.5,374.5C 83.3307,369.025 81.6641,363.025 81.5,356.5C 81.5569,355.391 81.8902,354.391 82.5,353.5C 83.3227,356.977 83.8227,360.644 84,364.5C 85.2104,357.888 85.7104,351.222 85.5,344.5C 85.2322,342.901 85.5655,341.568 86.5,340.5 Z"/></g>
<g><path style="opacity:1" fill="#f3c35e" d="M 451.5,347.5 C 451.5,351.5 451.5,355.5 451.5,359.5C 448.833,359.5 446.167,359.5 443.5,359.5C 443.639,354.64 441.306,351.974 436.5,351.5C 436.5,350.833 436.5,350.167 436.5,349.5C 441.056,347.558 446.056,346.892 451.5,347.5 Z"/></g>
<g><path style="opacity:1" fill="#fade65" d="M 399.5,351.5 C 403.483,353.368 403.483,355.534 399.5,358C 393.984,358.817 388.65,358.651 383.5,357.5C 384.058,356.21 385.058,355.377 386.5,355C 390.809,353.673 395.142,352.506 399.5,351.5 Z"/></g>
<g><path style="opacity:1" fill="#ecbf61" d="M 400.5,347.5 C 405.833,347.5 411.167,347.5 416.5,347.5C 415.838,351.466 415.505,355.466 415.5,359.5C 404.5,359.5 393.5,359.5 382.5,359.5C 382.328,358.508 382.662,357.842 383.5,357.5C 388.65,358.651 393.984,358.817 399.5,358C 403.483,355.534 403.483,353.368 399.5,351.5C 400.234,350.292 400.567,348.959 400.5,347.5 Z"/></g>
<g><path style="opacity:1" fill="#fbdf65" d="M 436.5,351.5 C 441.306,351.974 443.639,354.64 443.5,359.5C 437.5,359.5 431.5,359.5 425.5,359.5C 427.64,356.939 429.973,354.605 432.5,352.5C 433.708,351.766 435.041,351.433 436.5,351.5 Z"/></g>
<g><path style="opacity:1" fill="#96aaf3" d="M 85.5,344.5 C 85.7104,351.222 85.2104,357.888 84,364.5C 83.8227,360.644 83.3227,356.977 82.5,353.5C 83.3307,350.341 84.3307,347.341 85.5,344.5 Z"/></g>
<g><path style="opacity:0.818" fill="#e9b860" d="M 432.5,352.5 C 429.973,354.605 427.64,356.939 425.5,359.5C 424.609,360.11 423.609,360.443 422.5,360.5C 423.408,355.022 426.741,352.356 432.5,352.5 Z"/></g>
<g><path style="opacity:1" fill="#173390" d="M 74.5,353.5 C 77.4977,368.021 71.4977,375.854 56.5,377C 61.9539,373.88 66.4539,369.713 70,364.5C 72.0719,361.029 73.5719,357.362 74.5,353.5 Z"/></g>
<g><path style="opacity:1" fill="#535f95" d="M 382.5,359.5 C 393.5,359.5 404.5,359.5 415.5,359.5C 415.5,360.167 415.5,360.833 415.5,361.5C 404.5,360.167 393.5,360.167 382.5,361.5C 382.5,360.833 382.5,360.167 382.5,359.5 Z"/></g>
<g><path style="opacity:0.984" fill="#153992" d="M 415.5,361.5 C 404.5,362.833 393.5,362.833 382.5,361.5C 393.5,360.167 404.5,360.167 415.5,361.5 Z"/></g>
<g><path style="opacity:0.951" fill="#344186" d="M 425.5,359.5 C 431.5,359.5 437.5,359.5 443.5,359.5C 446.167,359.5 448.833,359.5 451.5,359.5C 451.5,360.5 451.5,361.5 451.5,362.5C 441.442,363.14 431.775,362.473 422.5,360.5C 423.609,360.443 424.609,360.11 425.5,359.5 Z"/></g>
<g><path style="opacity:1" fill="#95aaf7" d="M 81.5,356.5 C 81.6641,363.025 83.3307,369.025 86.5,374.5C 87.9886,378.502 90.4886,381.836 94,384.5C 94.3333,387.167 94.6667,389.833 95,392.5C 95.2784,391.584 95.7784,390.918 96.5,390.5C 96.5,392.833 96.5,395.167 96.5,397.5C 95.8333,397.5 95.1667,397.5 94.5,397.5C 82.7716,390.753 77.4382,380.42 78.5,366.5C 78.8993,362.884 79.8993,359.55 81.5,356.5 Z"/></g>
<g><path style="opacity:1" fill="#b7c0e4" d="M 36.5,379.5 C 35.0686,377.563 33.4019,375.73 31.5,374C 28.7494,373.484 26.4161,372.317 24.5,370.5C 26.0437,370.711 27.7103,370.711 29.5,370.5C 28.1666,369.38 27.6666,368.047 28,366.5C 30.3116,369.646 32.8116,372.646 35.5,375.5C 36.5827,374.635 36.7494,373.635 36,372.5C 34.0283,371.695 32.5283,370.361 31.5,368.5C 32.868,367.406 34.0347,367.74 35,369.5C 35.3333,368.5 35.6667,367.5 36,366.5C 36.036,368.941 36.8693,370.941 38.5,372.5C 39.7414,369.69 39.408,367.023 37.5,364.5C 37.6667,364.167 37.8333,363.833 38,363.5C 38.8333,364.5 39.6667,365.5 40.5,366.5C 41.1771,364.247 42.1771,361.914 43.5,359.5C 44.2485,361.332 45.2485,362.999 46.5,364.5C 45.5637,365.974 44.2303,366.974 42.5,367.5C 40.8418,371.781 38.8418,375.781 36.5,379.5 Z"/></g>
<g><path style="opacity:1" fill="#b2bde7" d="M 91.5,323.5 C 92.1667,323.833 92.8333,324.167 93.5,324.5C 93.6655,328.514 93.4988,332.514 93,336.5C 90.9136,345.771 89.5803,355.105 89,364.5C 90.3643,356.011 92.3643,347.678 95,339.5C 93.3772,347.19 92.2105,355.023 91.5,363C 91.8333,364.833 92.1667,366.667 92.5,368.5C 93.3574,363.76 94.5241,359.093 96,354.5C 96.5556,352.405 97.0556,352.238 97.5,354C 94.0125,364.438 93.6791,374.938 96.5,385.5C 96.5,387.167 96.5,388.833 96.5,390.5C 95.7784,390.918 95.2784,391.584 95,392.5C 94.6667,389.833 94.3333,387.167 94,384.5C 90.4886,381.836 87.9886,378.502 86.5,374.5C 87.8946,376.054 88.5613,375.721 88.5,373.5C 87.4138,367.198 87.2472,360.865 88,354.5C 90.0413,344.255 91.208,333.922 91.5,323.5 Z"/></g>
<g><path style="opacity:0.98" fill="#96acf8" d="M 76.5,369.5 C 76.8398,381.523 81.8398,390.856 91.5,397.5C 80.5,397.5 69.5,397.5 58.5,397.5C 58.3893,396.883 58.056,396.383 57.5,396C 59.5,394.333 61.5,392.667 63.5,391C 60.4353,391.785 57.602,393.285 55,395.5C 53.7425,395.15 53.4092,394.483 54,393.5C 56.7311,390.288 60.2311,388.788 64.5,389C 65.1667,388.333 65.8333,387.667 66.5,387C 64.7749,387.409 63.1082,387.242 61.5,386.5C 62.025,382.856 61.3583,383.19 59.5,387.5C 58.675,388.386 57.675,388.719 56.5,388.5C 56.3398,386.801 56.5065,385.134 57,383.5C 58.9923,382.672 60.4923,381.339 61.5,379.5C 67.4062,377.39 72.4062,374.057 76.5,369.5 Z"/></g>
<g><path style="opacity:1" fill="#8199ed" d="M 113.5,370.5 C 120.314,370.49 122.814,373.823 121,380.5C 117.297,386.265 112.13,389.932 105.5,391.5C 105.134,386.295 105.967,381.295 108,376.5C 109.36,373.977 111.193,371.977 113.5,370.5 Z"/></g>
<g><path style="opacity:1" fill="#d8d6cf" d="M -0.5,384.5 C -0.5,383.5 -0.5,382.5 -0.5,381.5C 1.01079,380.042 2.01079,378.209 2.5,376C 3.94371,375.219 5.27704,375.386 6.5,376.5C 4.14919,379.239 1.81586,381.905 -0.5,384.5 Z"/></g>
<g><path style="opacity:1" fill="#8199ed" d="M 172.5,376.5 C 181.211,377.55 186.878,382.217 189.5,390.5C 189.141,394.356 186.974,396.356 183,396.5C 180.793,395.97 178.793,394.97 177,393.5C 174.374,388.123 172.874,382.456 172.5,376.5 Z"/></g>
<g><path style="opacity:1" fill="#b3bee6" d="M 78.5,366.5 C 77.4382,380.42 82.7716,390.753 94.5,397.5C 93.5,397.5 92.5,397.5 91.5,397.5C 81.8398,390.856 76.8398,381.523 76.5,369.5C 76.427,367.973 77.0937,366.973 78.5,366.5 Z"/></g>
<g><path style="opacity:1" fill="#9fb0f2" d="M 53.5,382.5 C 53.6567,383.873 53.49,385.207 53,386.5C 52.3457,385.304 51.8457,385.304 51.5,386.5C 52.9433,390.38 52.61,394.047 50.5,397.5C 45.1667,397.5 39.8333,397.5 34.5,397.5C 34.3505,396.448 34.5172,395.448 35,394.5C 37.2503,393.292 39.417,391.959 41.5,390.5C 40.6086,389.41 39.6086,389.41 38.5,390.5C 37.3162,388.533 37.6495,386.866 39.5,385.5C 44.0946,384.185 48.7613,383.185 53.5,382.5 Z"/></g>
<g><path style="opacity:1" fill="#b3bee5" d="M 61.5,379.5 C 60.4923,381.339 58.9923,382.672 57,383.5C 56.5065,385.134 56.3398,386.801 56.5,388.5C 57.675,388.719 58.675,388.386 59.5,387.5C 61.3583,383.19 62.025,382.856 61.5,386.5C 63.1082,387.242 64.7749,387.409 66.5,387C 65.8333,387.667 65.1667,388.333 64.5,389C 60.2311,388.788 56.7311,390.288 54,393.5C 53.4092,394.483 53.7425,395.15 55,395.5C 57.602,393.285 60.4353,391.785 63.5,391C 61.5,392.667 59.5,394.333 57.5,396C 58.056,396.383 58.3893,396.883 58.5,397.5C 55.8333,397.5 53.1667,397.5 50.5,397.5C 52.61,394.047 52.9433,390.38 51.5,386.5C 51.8457,385.304 52.3457,385.304 53,386.5C 53.49,385.207 53.6567,383.873 53.5,382.5C 56.3554,381.883 59.0221,380.883 61.5,379.5 Z"/></g>
<g><path style="opacity:1" fill="#afbbe7" d="M 39.5,385.5 C 37.6495,386.866 37.3162,388.533 38.5,390.5C 39.6086,389.41 40.6086,389.41 41.5,390.5C 39.417,391.959 37.2503,393.292 35,394.5C 34.5172,395.448 34.3505,396.448 34.5,397.5C 33.1667,397.5 31.8333,397.5 30.5,397.5C 29.8505,395.565 29.5172,393.565 29.5,391.5C 25.5128,391.99 21.8462,391.324 18.5,389.5C 25.3779,388.178 32.3779,386.845 39.5,385.5 Z"/></g>
</svg>
